# xmcd
#
# Track frame offsets:
#	150
#	19497
#	43077
#	63782
#	83375
#	106680
#	126200
#	146877
#	167427
#
# Disc length: 2812 seconds
#
# Revision: 1
# Processed by: cddbd v1.5.1PL0 Copyright (c) Steve Scherf et al.
# Submitted via: CDex 1.50Beta5
#
DISCID=6d0afa09
DTITLE=財津和夫 - Z氏の悪い趣味 Disc 1
DYEAR=1900
DGENRE=Pop
TTITLE0=白いパラソル
TTITLE1=ラブ・ストーリーを君に
TTITLE2=サボテンの花
TTITLE3=ふたつの鍵
TTITLE4=今だから
TTITLE5=LOVE SONG
TTITLE6=心の糸
TTITLE7=青春の影
TTITLE8=水色の朝
EXTD=
EXTT0=
EXTT1=
EXTT2=
EXTT3=
EXTT4=
EXTT5=
EXTT6=
EXTT7=
EXTT8=
PLAYORDER=
